<svg width="148" height="40" viewBox="0 0 148 40" fill="none" xmlns="http://www.w3.org/2000/svg">
<g clip-path="url(#clip0_4989_32089)">
<path d="M112.156 0.960334C117.125 -0.6611 122.723 -0.219207 127.363 2.2025C133.152 5.14266 137.256 11.0995 138.01 17.5783C140.991 18.4064 143.992 19.1371 146.963 19.993C143.982 20.8142 140.987 21.5762 138.01 22.3869C137.53 26.2735 135.932 30.0209 133.384 32.9854C130.327 36.6145 125.932 39.0814 121.25 39.7669C116.381 40.5289 111.243 39.3772 107.166 36.5901C102.332 33.3681 99.0885 27.9123 98.4903 22.112C95.5476 21.3396 92.5428 20.8212 89.6347 19.9374C92.5773 19.2206 95.5442 18.6013 98.4695 17.8218C98.8568 15.1392 99.6003 12.4809 100.97 10.1287C103.38 5.81072 107.46 2.47042 112.156 0.960334ZM115.593 3.42032C112.132 3.97704 108.847 5.65762 106.402 8.19415C101.181 13.2951 100.077 21.9694 103.736 28.2811C105.8 31.9346 109.258 34.7912 113.259 36.0195C117.681 37.4113 122.702 36.8894 126.696 34.499C129.538 32.8427 131.866 30.3062 133.29 27.3278C135.406 22.9854 135.503 17.7175 133.577 13.2916C131.98 9.57203 128.999 6.4753 125.341 4.77731C122.325 3.33333 118.881 2.92971 115.593 3.42032Z" fill="#FF6900"/>
<path d="M109.998 8.2046C111.703 7.10509 113.584 6.32569 115.465 5.595C115.057 6.50314 114.434 7.33474 114.358 8.36466C114.075 10.7168 114.939 13.0028 115.766 15.1601C116.599 17.1016 117.453 19.0362 118.328 20.9603C119.13 18.6291 120.24 16.4266 121.229 14.1789C121.938 12.4948 122.637 10.7168 122.484 8.85179C122.464 7.67225 121.852 6.63536 121.305 5.63328C124.729 6.73279 128.224 8.46904 130.296 11.5484C130.946 12.6548 131.821 13.7926 131.876 15.1114C130.87 21.5797 128.671 28.1072 124.272 33.0585C123.477 34.1475 122.038 34.2067 120.852 34.5233C122.426 31.0995 123.919 27.6131 124.825 23.9423C125.61 20.9395 125.897 17.8323 125.918 14.7356C123.294 20.1148 120.915 25.6159 118.314 31.0091C115.735 25.6542 113.186 20.2853 110.548 14.9583C110.693 21.7641 112.692 28.396 115.634 34.4851C114.791 34.2589 113.84 34.1928 113.127 33.6465C108.2 28.6952 105.551 21.8407 104.669 14.9826C105.752 12.2791 107.515 9.76341 109.998 8.2046Z" fill="#FF6900"/>
<path d="M0.72266 7.0842C4.00071 7.39039 7.28569 7.69311 10.5395 8.20459C11.359 11.2074 12.1129 14.2345 13.1191 17.1816C13.8798 14.652 14.6302 12.1225 15.429 9.61029C15.5569 9.35977 15.5673 8.76826 16.003 8.93528C17.6178 9.13709 19.2291 9.39109 20.8405 9.63117C20.8405 16.0334 20.8267 22.4356 20.8198 28.8344C19.2395 28.9631 17.6593 29.1023 16.0859 29.2763C16.0756 26.2978 16.1309 23.3125 16.0445 20.3375C15.8474 20.6193 15.6883 20.9221 15.5638 21.2456C14.7097 23.5317 13.9282 25.8385 13.0776 28.1211C12.0921 25.4976 11.1862 22.8392 10.2145 20.2122C10.135 20.6159 10.09 21.023 10.0969 21.4405C10.1142 24.2763 10.0969 27.1155 10.1004 29.9548C6.91569 30.3305 3.73792 30.7933 0.563599 31.2665C2.31328 30.4384 4.06987 29.6173 5.88871 28.9596C5.7746 28.9353 5.54638 28.8866 5.42881 28.8622C5.43227 23.4969 5.41498 18.1315 5.41844 12.7662C5.43227 11.524 5.35274 10.2784 5.49797 9.04314C3.90389 8.39944 2.25449 7.87752 0.72266 7.0842Z" fill="#FF6900"/>
<path d="M80.3158 8.18718C83.1478 7.73485 86.004 7.29991 88.8705 7.17117C87.1797 7.91926 85.4369 8.53513 83.7598 9.30757C84.154 9.26929 84.5517 9.23102 84.9493 9.20318C84.2059 11.8371 83.5178 14.492 82.7605 17.1259C82.6256 17.6096 82.4424 18.1176 82.6014 18.6221C83.3967 22.0285 84.199 25.4349 84.9251 28.8587C84.5171 28.7961 84.1091 28.7404 83.7045 28.6882C85.4058 29.5372 87.152 30.2992 88.8878 31.0717C87.8436 31.0856 86.8235 30.8211 85.7965 30.6646C83.8843 30.3271 81.9617 30.0487 80.0392 29.7843C79.3891 26.8093 78.7667 23.8309 78.1442 20.8525C77.833 20.8559 77.5288 20.8559 77.221 20.8629C77.2348 23.6882 77.221 26.5205 77.2279 29.3493C75.5751 29.2693 73.9429 28.9944 72.2935 28.8726C72.2901 22.3695 72.2866 15.8664 72.2935 9.36324C73.936 9.10228 75.5785 8.85176 77.2245 8.61167C77.2348 11.5692 77.2106 14.5268 77.2348 17.4808C77.3973 17.4878 77.7258 17.5017 77.8884 17.5087C78.7425 14.4154 79.5447 11.3083 80.3158 8.18718Z" fill="#FF6900"/>
<path d="M61.5084 10.9047C63.2408 10.6541 64.9801 10.4419 66.7125 10.1983C68.1856 16.3709 69.6621 22.54 71.0176 28.7404C69.4028 28.6221 67.7914 28.4586 66.1731 28.3751C66.014 27.6166 65.8619 26.8615 65.7201 26.0995C64.6344 26.096 63.552 26.0195 62.4697 26.0091C62.3072 26.7084 62.3245 27.4948 61.9683 28.1246C60.3743 28.0724 58.7837 27.9993 57.1896 27.9436C58.673 22.2721 60.1357 16.604 61.5084 10.9047ZM63.144 22.6931C62.4455 22.8497 61.747 22.9958 61.052 23.142C62.4282 23.2985 63.8148 23.2359 65.1945 23.2324C64.8072 21.2526 64.5237 19.2554 64.1122 17.2791C63.7595 19.0779 63.4552 20.8873 63.144 22.6931Z" fill="#FF6900"/>
<path d="M26.4077 10.3897C28.1263 10.595 29.8414 10.8351 31.5634 10.9951C32.988 16.6528 34.3781 22.3243 35.9099 27.9576C34.2847 28.0619 32.6526 28.0967 31.0274 28.1907C30.8822 27.4948 30.7473 26.7954 30.6194 26.0926C29.5336 26.0717 28.4513 26.1204 27.369 26.1656C27.2307 26.9068 27.0958 27.6479 26.954 28.3855C25.3288 28.4969 23.7071 28.6221 22.0819 28.7126C23.4443 22.5853 24.8759 16.4753 26.4077 10.3897ZM27.981 22.7418C27.6041 22.9158 27.1408 22.9471 26.8538 23.2742C27.9257 23.3229 29.0011 23.2916 30.073 23.2985C29.7203 21.364 29.3918 19.4259 29.053 17.4913C28.5101 19.1997 28.4375 21.016 27.981 22.7418Z" fill="#FF6900"/>
<path d="M33.7211 11.2769C36.4147 11.444 39.1015 11.7362 41.8021 11.8267C42.5594 13.8935 43.3581 15.9429 44.1154 18.0062C44.2745 15.9882 44.1431 13.9596 44.188 11.938C45.834 11.9241 47.4834 11.9798 49.1293 11.858C49.1362 17.1747 49.1224 22.4913 49.1293 27.8079C47.4799 27.801 45.8305 27.8044 44.1811 27.8044C43.3547 25.668 42.4591 23.5595 41.7364 21.3883C41.5324 23.5421 41.6742 25.7133 41.6327 27.8775C40.1423 27.8566 38.652 27.968 37.1616 27.9506C37.1513 22.8845 37.1616 17.8149 37.1374 12.7488C37.7806 12.7627 38.4238 12.801 39.06 12.9053C37.2827 12.3417 35.4638 11.9276 33.7211 11.2769Z" fill="#FF6900"/>
<path d="M51.0934 11.8163C52.7013 11.7049 54.3092 11.6284 55.9102 11.4683C55.9136 16.952 55.9102 22.4391 55.9102 27.9262C54.3092 27.8149 52.7013 27.9436 51.1038 27.8323C51.1176 22.4913 51.1003 17.1538 51.0934 11.8163Z" fill="#FF6900"/>
<path d="M25.5329 33.5073C26.4388 33.4934 27.3482 33.4969 28.2542 33.5108C28.2507 33.9527 28.2507 34.3946 28.2507 34.8365C27.8081 34.8399 27.369 34.8399 26.9264 34.8434C26.9264 35.0974 26.9264 35.6124 26.9264 35.8699C27.324 35.8664 27.7217 35.8664 28.1228 35.8629C28.1193 36.2874 28.1228 36.7119 28.1263 37.1364C27.7217 37.1364 27.3206 37.1329 26.9195 37.1364C26.9125 37.9228 26.9056 38.7161 26.8987 39.5024C26.4457 39.492 25.9893 39.4885 25.5329 39.4816C25.5432 37.4913 25.5294 35.501 25.5329 33.5073Z" fill="#FF6900"/>
<path d="M35.8131 33.4969C36.9092 33.5073 38.0054 33.5073 39.1015 33.4934C39.1015 33.9666 39.105 34.4363 39.1084 34.9095C38.7868 34.913 38.4653 34.9165 38.1471 34.9234C38.1437 36.4475 38.1713 37.9715 38.1229 39.4955C37.6803 39.4989 37.2343 39.4989 36.7917 39.4989C36.7398 37.9749 36.7709 36.4475 36.7675 34.9234C36.4459 34.92 36.1243 34.9165 35.8096 34.913C35.8096 34.4363 35.8096 33.9666 35.8131 33.4969Z" fill="#FF6900"/>
<path d="M42.1099 33.4829C42.5732 33.5003 43.04 33.5177 43.5068 33.5247C44.0221 34.4572 44.316 35.5358 45.0525 36.3291C45.0871 35.3897 45.0663 34.4537 45.0663 33.5143C45.5297 33.5038 45.993 33.4969 46.4564 33.4899C46.4806 35.4906 46.4529 37.4948 46.4426 39.5024C45.9723 39.4955 45.502 39.4885 45.0317 39.485C44.5096 38.4133 43.946 37.3556 43.5103 36.2387C43.4688 37.3208 43.4688 38.4029 43.4757 39.4885C43.0124 39.485 42.549 39.485 42.0891 39.485C42.1099 37.4843 42.0718 35.4836 42.1099 33.4829Z" fill="#FF6900"/>
<path d="M49.8935 33.5073C50.8237 33.4969 51.7504 33.4969 52.684 33.5073C52.6806 33.9283 52.6806 34.3459 52.6771 34.7704C52.2345 34.7704 51.785 34.7704 51.3458 34.7738C51.3458 35.0487 51.3493 35.595 51.3493 35.8664C51.7262 35.8629 52.1066 35.8629 52.4869 35.8629C52.4835 36.2874 52.4835 36.7119 52.4835 37.1399C52.1066 37.1329 51.7262 37.1294 51.3527 37.126C51.3493 37.3869 51.3458 37.9088 51.3424 38.1698C51.785 38.1663 52.2276 38.1663 52.6702 38.1663C52.6702 38.6013 52.6737 39.0431 52.6771 39.4816C51.7504 39.485 50.8237 39.485 49.897 39.4816C49.9074 37.4948 49.8901 35.501 49.8935 33.5073Z" fill="#FF6900"/>
<path d="M56.46 33.5873C57.1032 33.1315 57.9158 33.3577 58.6281 33.476C58.6315 33.9596 58.6419 34.4433 58.6592 34.9304C58.1889 34.8295 57.6668 34.4502 57.2104 34.7843C56.8922 35.3827 57.7498 35.7133 58.0679 36.0891C58.9773 36.7084 59.4096 38.1211 58.6039 38.9944C57.9711 39.7773 56.8404 39.7321 55.9828 39.4015C55.9863 38.9283 55.9897 38.4516 55.9897 37.9784C56.4911 38.1907 57.5008 38.6604 57.5976 37.7766C57.2691 37.1433 56.5395 36.8441 56.1281 36.2665C55.4883 35.4836 55.5921 34.1545 56.46 33.5873Z" fill="#FF6900"/>
<path d="M62.5977 33.6047C63.2305 33.1211 64.0534 33.3646 64.7658 33.4655C64.7761 33.9422 64.79 34.4189 64.8211 34.8991C64.3681 34.7947 63.2374 34.3041 63.2823 35.1287C63.6489 35.7724 64.3716 36.096 64.8038 36.6875C65.4504 37.4982 65.2291 38.8796 64.2955 39.3772C63.6143 39.8017 62.8017 39.5998 62.0825 39.4154C62.079 38.9318 62.0894 38.4481 62.1067 37.961C62.6634 38.2046 63.2927 38.4795 63.8356 38.0376C63.5486 37.1503 62.5769 36.8197 62.1274 36.0473C61.6606 35.2749 61.8231 34.1232 62.5977 33.6047Z" fill="#FF6900"/>
<path d="M31.3732 33.5038C31.8538 33.5038 32.3379 33.5038 32.822 33.5038C32.8255 35.4976 32.8186 37.4913 32.822 39.485C32.3414 39.485 31.8573 39.4885 31.3766 39.4955C31.3801 37.4982 31.3663 35.501 31.3732 33.5038Z" fill="#FF6900"/>
<path d="M4.10103 36.5692C9.65781 36.4788 15.2146 36.3048 20.7748 36.2491C20.7714 36.4579 20.7679 36.8754 20.7645 37.0842C13.8418 36.9798 6.91918 36.858 0 36.6388C1.36586 36.5588 2.73171 36.5205 4.10103 36.5692Z" fill="#FF6900"/>
<path d="M68.7977 36.2491C74.3787 36.2978 79.9596 36.4857 85.5441 36.5657C86.91 36.4996 88.2689 36.5901 89.6348 36.6249C82.6914 36.8789 75.7445 36.9694 68.7977 37.0946C68.7977 36.8824 68.7977 36.4614 68.7977 36.2491Z" fill="#FF6900"/>
</g>
<defs>
<clipPath id="clip0_4989_32089">
<rect width="148" height="40" fill="white"/>
</clipPath>
</defs>
</svg>
