<svg width="254" height="231" viewBox="0 0 254 231" fill="none" xmlns="http://www.w3.org/2000/svg">
<g clip-path="url(#clip0_4995_32500)">
<path d="M90.2664 66.7934C99.3534 56.7216 112.513 50.4407 126.069 49.8212C142.875 48.8688 159.779 56.8193 169.821 70.2923C177.586 68.2706 185.285 66.0058 193.067 64.0544C187.422 69.7503 181.67 75.3434 176.015 81.0208C179.945 90.3135 181.17 100.745 179.265 110.675C177.061 122.744 170.356 133.957 160.709 141.559C150.744 149.579 137.696 153.683 124.942 152.761C109.92 151.85 95.5974 143.886 86.7797 131.727C79.1687 133.824 71.7439 136.574 64.0606 138.377C69.7519 132.954 75.6328 127.721 81.2058 122.189C78.623 115.707 76.8648 108.805 76.9195 101.78C76.776 89.0031 81.6455 76.2593 90.2664 66.7934ZM101.167 67.8114C94.0977 73.5463 88.879 81.5623 86.64 90.3932C81.4636 108.556 90.162 129.339 106.512 138.668C115.856 144.143 127.317 146.025 137.901 143.571C149.641 140.932 160.257 133.253 166.165 122.733C170.422 115.346 172.391 106.665 171.755 98.1773C170.92 85.7444 164.353 73.8595 154.32 66.4923C145.94 60.2654 135.24 57.2266 124.831 58.1967C116.194 58.8785 107.926 62.4519 101.167 67.8114Z" fill="#C5CCD3"/>
<path d="M94.7476 85.7551C97.1665 81.0825 100.393 76.905 103.685 72.8306C103.931 75.3827 103.609 78.0549 104.764 80.4496C107.153 86.0637 112.043 90.0379 116.678 93.7851C121.054 97.0394 125.467 100.241 129.913 103.394C128.715 97.1537 128.377 90.797 127.704 84.4987C127.129 79.8273 126.405 74.9487 123.665 70.9889C122.099 68.3838 119.382 66.8661 116.867 65.3361C125.978 63.3396 136.08 62.6758 144.708 66.8554C147.595 68.4769 151.026 69.8823 152.852 72.7473C158.919 88.4846 162.379 105.899 158.87 122.658C158.485 126.114 155.322 128.117 153.065 130.37C152.193 120.689 151.059 110.977 148.371 101.604C146.265 93.8862 142.917 86.5786 138.963 79.6453C139.988 95.0544 141.722 110.416 142.826 125.822C130.127 117.227 117.478 108.559 104.689 100.095C113.782 115.09 126.818 127.287 141.283 137.05C139.094 137.646 136.874 138.732 134.567 138.435C117.106 133.789 102.329 121.935 91.5061 107.779C90.4383 100.362 91.1617 92.4549 94.7476 85.7551Z" fill="#C5CCD3"/>
<path d="M60.1305 215.378C67.9014 211.804 75.6736 208.211 83.6572 205.133C89.371 210.768 94.9647 216.546 101.018 221.814C99.4739 215.186 97.8992 208.569 96.4607 201.923C96.427 201.195 95.6844 199.867 96.8819 199.677C100.777 198.029 104.722 196.51 108.658 194.954C116.905 209.238 125.121 223.532 133.349 237.826C129.959 240.169 126.589 242.525 123.276 244.958C119.417 238.326 115.699 231.599 111.671 225.07C111.595 225.959 111.624 226.836 111.761 227.712C112.786 233.918 113.996 240.084 115.022 246.282C109.428 241.704 103.969 236.957 98.4003 232.358C98.7452 233.359 99.1644 234.33 99.7164 235.254C103.412 241.559 107.027 247.916 110.69 254.24C103.999 259.205 97.4467 264.36 90.9226 269.541C93.7954 265.421 96.6853 261.309 99.9273 257.477C99.6405 257.576 99.0634 257.756 98.7674 257.859C91.8665 245.885 84.9196 233.938 78.0142 221.967C76.4475 219.179 74.6638 216.504 73.4041 213.557C68.9799 214.182 64.5885 215.162 60.1305 215.378Z" fill="#C5CCD3"/>
<path d="M240.56 114.49C246.345 109.803 252.211 105.118 258.488 101.114C255.65 104.975 252.522 108.612 249.746 112.517C250.584 111.917 251.429 111.319 252.289 110.737C254.013 117.58 255.88 124.395 257.572 131.257C257.888 132.507 258.129 133.88 259.14 134.803C265.319 141.37 271.508 147.925 277.554 154.624C276.554 155.018 275.571 155.42 274.587 155.829C279.51 155.516 284.421 154.946 289.317 154.416C286.984 155.805 284.355 156.533 281.842 157.525C277.105 159.256 272.427 161.13 267.759 163.035C262.464 157.243 257.236 151.407 251.989 145.57C251.296 145.976 250.609 146.379 249.927 146.791C253.595 153.081 257.211 159.407 260.875 165.711C257.056 167.672 253.029 169.188 249.166 171.051C240.785 156.545 232.395 142.045 224.04 127.53C227.398 124.814 230.767 122.128 234.161 119.452C237.991 126.034 241.751 132.663 245.61 139.228C245.984 139.037 246.736 138.639 247.114 138.445C245.038 130.428 242.835 122.447 240.56 114.49Z" fill="#C5CCD3"/>
<path d="M201.76 144.974C205.334 142.163 208.972 139.432 212.559 136.645C223.817 148.504 235.086 160.35 246.121 172.417C242.336 174.247 238.499 175.985 234.755 177.895C233.425 176.41 232.1 174.921 230.809 173.407C228.36 174.809 225.835 176.046 223.378 177.422C223.916 179.193 224.966 180.926 224.978 182.787C221.325 184.737 217.652 186.643 213.996 188.588C210.025 174.017 206.01 159.464 201.76 144.974ZM220.617 169.144C219.25 170.399 217.872 171.636 216.493 172.861C219.789 171.429 222.831 169.483 225.924 167.679C222.502 163.77 219.297 159.674 215.829 155.804C217.346 160.28 218.991 164.713 220.617 169.144Z" fill="#C5CCD3"/>
<path d="M122.151 189.399C126.278 187.623 130.444 185.934 134.526 184.055C145.022 194.829 155.449 205.673 166.152 216.254C162.63 218.6 159.012 220.793 155.473 223.111C154.248 221.743 153.05 220.359 151.854 218.967C149.384 220.332 147.018 221.845 144.635 223.349C145.281 225.181 145.925 227.007 146.567 228.841C143.054 231.194 139.565 233.588 136.033 235.897C131.196 220.453 126.542 204.965 122.151 189.399ZM141.599 214.913C140.975 215.787 139.97 216.459 139.75 217.566C142.229 216.282 144.601 214.821 147.02 213.442C143.739 209.587 140.498 205.695 137.244 201.812C138.222 206.323 140.405 210.464 141.599 214.913Z" fill="#C5CCD3"/>
<path d="M139.736 181.88C146.013 178.758 152.429 175.917 158.614 172.615C162.981 176.236 167.412 179.777 171.774 183.401C169.532 178.688 166.625 174.334 164.118 169.768C167.804 167.598 171.586 165.585 175.129 163.178C181.994 175.026 188.807 186.91 195.671 198.758C191.952 200.881 188.251 203.036 184.538 205.18C179.93 201.49 175.199 197.951 170.779 194.036C173.095 199.11 176.212 203.765 178.902 208.648C175.526 210.536 172.322 212.722 168.937 214.616C162.388 203.326 155.883 192.006 149.307 180.732C150.77 179.93 152.27 179.181 153.834 178.584C149.123 179.638 144.497 181.072 139.736 181.88Z" fill="#C5CCD3"/>
<path d="M179.505 160.524C182.971 158.186 186.494 155.925 189.888 153.494C196.956 165.726 204.021 177.973 211.085 190.208C207.342 192.045 203.894 194.415 200.154 196.237C193.311 184.31 186.397 172.429 179.505 160.524Z" fill="#C5CCD3"/>
<path d="M173.064 228.736C175.544 227.335 178.01 225.911 180.456 224.462C181.063 225.514 181.675 226.563 182.296 227.607C181.572 228.031 180.862 228.459 180.149 228.883C182.102 232.287 184.127 235.655 185.988 239.112C184.992 239.694 183.994 240.27 182.995 240.846C180.918 237.514 179.02 234.067 177.046 230.669C176.313 231.079 175.59 231.485 174.874 231.892C174.269 230.833 173.664 229.786 173.064 228.736Z" fill="#C5CCD3"/>
<path d="M187.216 220.529C188.284 219.967 189.352 219.393 190.414 218.811C192.775 220.222 194.827 222.246 197.5 223.06C196.369 220.921 195.109 218.856 193.903 216.766C194.929 216.143 195.963 215.521 197 214.905C199.632 219.337 202.155 223.845 204.71 228.334C203.637 228.929 202.578 229.528 201.511 230.126C198.952 228.413 196.326 226.787 193.914 224.861C195.212 227.333 196.606 229.749 198.027 232.156C196.982 232.747 195.937 233.35 194.907 233.945C192.359 229.458 189.699 225.041 187.216 220.529Z" fill="#C5CCD3"/>
<path d="M204.751 210.478C206.827 209.249 208.916 208.043 211.023 206.857C211.562 207.802 212.095 208.737 212.632 209.688C211.634 210.264 210.631 210.844 209.647 211.424C209.999 212.035 210.711 213.247 211.064 213.857C211.912 213.361 212.761 212.865 213.617 212.371C214.159 213.32 214.707 214.271 215.256 215.221C214.394 215.694 213.541 216.181 212.696 216.663C213.028 217.249 213.688 218.423 214.017 219.005C215.008 218.426 216.007 217.85 217.001 217.276C217.563 218.25 218.132 219.225 218.714 220.2C216.635 221.413 214.546 222.619 212.46 223.81C209.912 219.354 207.304 214.932 204.751 210.478Z" fill="#C5CCD3"/>
<path d="M219.624 202.13C220.485 200.273 222.604 199.724 224.351 199.064C224.981 200.133 225.63 201.204 226.292 202.267C225.097 202.651 223.443 202.485 222.846 203.821C222.905 205.57 225.252 205.194 226.455 205.62C229.299 205.816 232.091 208.41 231.405 211.409C230.989 213.982 228.388 215.343 226.033 215.717C225.43 214.65 224.829 213.589 224.219 212.533C225.615 212.357 228.497 212.09 227.572 209.997C226.019 209.008 223.991 209.29 222.324 208.538C219.876 207.624 218.403 204.519 219.624 202.13Z" fill="#C5CCD3"/>
<path d="M233.445 194.2C234.246 192.292 236.411 191.771 238.147 191.069C238.785 192.121 239.429 193.163 240.116 194.194C238.96 194.549 235.789 194.922 236.953 196.706C238.607 197.668 240.647 197.451 242.386 198.211C244.885 199.181 246.167 202.549 244.708 204.867C243.727 206.696 241.631 207.305 239.78 207.829C239.15 206.748 238.552 205.66 237.963 204.555C239.532 204.371 241.296 204.174 241.949 202.48C240.165 200.877 237.55 201.395 235.546 200.262C233.491 199.146 232.371 196.357 233.445 194.2Z" fill="#C5CCD3"/>
<path d="M250.791 192.047C263.412 184.908 276.201 178.081 288.861 171.011C291.845 169.092 295.019 167.523 298.136 165.834C282.846 175.415 267.336 184.638 251.877 193.938C251.608 193.462 251.065 192.52 250.791 192.047Z" fill="#C5CCD3"/>
</g>
<defs>
<clipPath id="clip0_4995_32500">
<rect width="232.777" height="199.915" fill="white" transform="translate(0.45813 115.784) rotate(-30)"/>
</clipPath>
</defs>
</svg>
