<svg width="457" height="334" viewBox="0 0 457 334" fill="none" xmlns="http://www.w3.org/2000/svg">
<g clip-path="url(#clip0_4995_32216)">
<path d="M174.944 17.3482C192.573 -2.19222 218.104 -14.3778 244.405 -15.5796C277.011 -17.4274 309.805 -2.00267 329.288 24.1364C344.354 20.2141 359.29 15.8202 374.387 12.0344C363.437 23.0849 352.276 33.9361 341.306 44.951C348.929 62.9798 351.306 83.2182 347.61 102.484C343.334 125.898 330.327 147.652 311.61 162.403C292.276 177.961 266.962 185.923 242.219 184.134C213.073 182.368 185.286 166.916 168.179 143.326C153.413 147.396 139.008 152.73 124.102 156.228C135.143 145.707 146.553 135.555 157.365 124.822C152.354 112.247 148.943 98.8547 149.049 85.2259C148.771 60.4376 158.218 35.7131 174.944 17.3482ZM196.092 19.3233C182.377 30.4497 172.252 46.0016 167.908 63.1344C157.865 98.3724 174.741 138.694 206.461 156.794C224.591 167.414 246.827 171.066 267.359 166.305C290.137 161.185 310.733 146.288 322.195 125.877C330.453 111.546 334.274 94.7028 333.04 78.2364C331.421 54.1153 318.68 31.0573 299.215 16.7641C282.956 4.68316 262.198 -1.21241 242.003 0.669709C225.246 1.99241 209.205 8.92532 196.092 19.3233Z" fill="#C5CCD3"/>
<path d="M183.638 54.1361C188.331 45.0707 194.59 36.966 200.976 29.0612C201.455 34.0125 200.829 39.1969 203.071 43.8428C207.705 54.7348 217.192 62.4452 226.186 69.7151C234.675 76.0288 243.237 82.2412 251.863 88.3576C249.539 76.2507 248.882 63.918 247.576 51.6985C246.462 42.6355 245.056 33.1705 239.74 25.488C236.703 20.4339 231.432 17.4893 226.552 14.5209C244.229 10.6475 263.827 9.35967 280.566 17.4686C286.167 20.6145 292.824 23.3411 296.366 28.8994C308.138 59.4315 314.849 93.2179 308.042 125.732C307.295 132.437 301.159 136.323 296.779 140.694C295.089 121.912 292.887 103.07 287.673 84.8855C283.587 69.9114 277.091 55.7338 269.42 42.2824C271.409 72.1778 274.773 101.98 276.914 131.871C252.277 115.194 227.737 98.3781 202.925 81.9564C220.567 111.048 245.858 134.713 273.921 153.653C269.674 154.811 265.367 156.917 260.892 156.34C227.015 147.327 198.346 124.328 177.349 96.8657C175.277 82.4746 176.681 67.1345 183.638 54.1361Z" fill="#C5CCD3"/>
<path d="M116.477 305.62C131.553 298.685 146.632 291.714 162.121 285.742C173.206 296.675 184.059 307.886 195.804 318.106C192.807 305.247 189.752 292.409 186.961 279.515C186.896 278.103 185.455 275.525 187.778 275.158C195.335 271.959 202.989 269.013 210.626 265.994C226.625 293.706 242.565 321.439 258.529 349.171C251.952 353.716 245.414 358.287 238.987 363.008C231.498 350.14 224.285 337.09 216.471 324.422C216.324 326.146 216.379 327.849 216.646 329.548C218.633 341.588 220.981 353.551 222.973 365.576C212.12 356.695 201.529 347.484 190.724 338.562C191.393 340.504 192.207 342.387 193.278 344.18C200.447 356.413 207.461 368.746 214.568 381.014C201.585 390.648 188.874 400.648 176.217 410.7C181.79 402.707 187.397 394.729 193.687 387.296C193.13 387.487 192.011 387.836 191.436 388.037C178.048 364.806 164.57 341.627 151.173 318.402C148.133 312.993 144.673 307.803 142.229 302.086C133.645 303.299 125.126 305.2 116.477 305.62Z" fill="#C5CCD3"/>
<path d="M466.529 109.884C477.753 100.791 489.133 91.7018 501.312 83.9337C495.806 91.4254 489.738 98.4808 484.352 106.057C485.977 104.893 487.617 103.733 489.285 102.603C492.63 115.879 496.252 129.102 499.534 142.414C500.149 144.839 500.616 147.504 502.578 149.294C514.564 162.036 526.573 174.753 538.302 187.75C536.362 188.514 534.456 189.294 532.546 190.088C542.097 189.479 551.625 188.375 561.124 187.345C556.598 190.042 551.498 191.454 546.622 193.378C537.431 196.736 528.354 200.372 519.299 204.068C509.027 192.831 498.883 181.508 488.702 170.183C487.36 170.97 486.026 171.752 484.702 172.552C491.819 184.755 498.834 197.029 505.943 209.26C498.533 213.063 490.721 216.005 483.227 219.619C466.966 191.477 450.689 163.344 434.478 135.185C440.993 129.914 447.53 124.703 454.115 119.511C461.547 132.281 468.841 145.142 476.326 157.88C477.052 157.509 478.511 156.738 479.246 156.361C475.217 140.807 470.944 125.323 466.529 109.884Z" fill="#C5CCD3"/>
<path d="M391.254 169.027C398.188 163.574 405.246 158.276 412.205 152.868C434.047 175.875 455.91 198.858 477.318 222.27C469.976 225.82 462.532 229.191 455.268 232.898C452.688 230.016 450.116 227.128 447.611 224.191C442.86 226.91 437.962 229.31 433.194 231.98C434.238 235.416 436.275 238.779 436.3 242.388C429.212 246.171 422.086 249.869 414.993 253.644C407.289 225.373 399.499 197.14 391.254 169.027ZM427.839 215.92C425.185 218.355 422.512 220.754 419.837 223.13C426.232 220.353 432.134 216.577 438.135 213.077C431.495 205.493 425.277 197.547 418.549 190.038C421.492 198.723 424.684 207.323 427.839 215.92Z" fill="#C5CCD3"/>
<path d="M236.803 255.217C244.811 251.77 252.893 248.494 260.811 244.849C281.175 265.751 301.404 286.791 322.171 307.318C315.336 311.87 308.318 316.124 301.452 320.622C299.075 317.968 296.75 315.282 294.43 312.582C289.638 315.23 285.048 318.165 280.425 321.084C281.679 324.637 282.928 328.181 284.173 331.739C277.357 336.304 270.588 340.949 263.735 345.428C254.352 315.465 245.323 285.417 236.803 255.217ZM274.534 304.716C273.324 306.413 271.374 307.717 270.948 309.864C275.758 307.372 280.358 304.537 285.051 301.863C278.685 294.383 272.398 286.833 266.085 279.299C267.984 288.052 272.217 296.086 274.534 304.716Z" fill="#C5CCD3"/>
<path d="M270.92 240.628C283.099 234.571 295.545 229.06 307.546 222.654C316.018 229.679 324.614 236.549 333.077 243.579C328.727 234.436 323.088 225.989 318.224 217.131C325.374 212.92 332.713 209.015 339.587 204.346C352.906 227.332 366.122 250.388 379.441 273.374C372.225 277.493 365.045 281.674 357.841 285.833C348.9 278.675 339.722 271.808 331.147 264.213C335.641 274.058 341.688 283.088 346.907 292.561C340.357 296.224 334.141 300.467 327.573 304.14C314.868 282.237 302.247 260.274 289.488 238.403C292.327 236.847 295.237 235.392 298.271 234.235C289.132 236.28 280.156 239.062 270.92 240.628Z" fill="#C5CCD3"/>
<path d="M348.076 199.195C354.8 194.659 361.636 190.273 368.22 185.557C381.934 209.289 395.64 233.049 409.345 256.786C402.082 260.35 395.393 264.948 388.139 268.483C374.862 245.342 361.447 222.293 348.076 199.195Z" fill="#C5CCD3"/>
<path d="M335.581 331.534C340.391 328.816 345.176 326.054 349.921 323.243C351.099 325.283 352.286 327.319 353.491 329.344C352.086 330.167 350.709 330.998 349.326 331.82C353.115 338.424 357.044 344.959 360.654 351.666C358.722 352.794 356.785 353.912 354.848 355.03C350.818 348.566 347.134 341.877 343.305 335.285C341.884 336.081 340.481 336.867 339.092 337.657C337.918 335.603 336.745 333.571 335.581 331.534Z" fill="#C5CCD3"/>
<path d="M363.036 315.612C365.109 314.522 367.18 313.409 369.241 312.279C373.821 315.016 377.802 318.943 382.988 320.523C380.794 316.372 378.35 312.366 376.009 308.312C378.001 307.102 380.007 305.897 382.018 304.7C387.125 313.299 392.02 322.045 396.977 330.754C394.894 331.909 392.84 333.072 390.771 334.231C385.805 330.908 380.711 327.754 376.031 324.017C378.549 328.812 381.255 333.499 384.011 338.169C381.983 339.316 379.956 340.486 377.957 341.641C373.014 332.935 367.853 324.367 363.036 315.612Z" fill="#C5CCD3"/>
<path d="M397.056 296.113C401.083 293.728 405.136 291.388 409.224 289.088C410.269 290.92 411.305 292.734 412.347 294.58C410.409 295.698 408.463 296.822 406.554 297.947C407.239 299.133 408.62 301.483 409.304 302.669C410.95 301.706 412.597 300.744 414.257 299.785C415.308 301.626 416.373 303.47 417.438 305.315C415.766 306.232 414.109 307.177 412.47 308.111C413.115 309.248 414.394 311.527 415.034 312.655C416.957 311.533 418.894 310.414 420.822 309.301C421.913 311.19 423.017 313.083 424.145 314.974C420.112 317.327 416.059 319.666 412.013 321.978C407.069 313.332 402.009 304.754 397.056 296.113Z" fill="#C5CCD3"/>
<path d="M425.912 279.916C427.582 276.314 431.692 275.248 435.083 273.968C436.305 276.042 437.563 278.12 438.849 280.181C436.53 280.926 433.321 280.605 432.163 283.198C432.277 286.589 436.831 285.861 439.165 286.687C444.681 287.067 450.099 292.101 448.768 297.918C447.961 302.911 442.915 305.551 438.346 306.276C437.176 304.207 436.01 302.148 434.827 300.098C437.535 299.758 443.127 299.239 441.331 295.179C438.318 293.259 434.385 293.807 431.15 292.348C426.401 290.576 423.542 284.552 425.912 279.916Z" fill="#C5CCD3"/>
<path d="M452.726 264.53C454.279 260.83 458.48 259.818 461.847 258.456C463.085 260.498 464.336 262.52 465.669 264.519C463.425 265.208 457.273 265.933 459.532 269.392C462.74 271.259 466.699 270.838 470.073 272.312C474.921 274.194 477.409 280.729 474.578 285.227C472.674 288.774 468.608 289.957 465.017 290.973C463.794 288.875 462.634 286.764 461.492 284.62C464.536 284.265 467.957 283.882 469.225 280.595C465.763 277.485 460.69 278.49 456.802 276.291C452.814 274.126 450.642 268.715 452.726 264.53Z" fill="#C5CCD3"/>
</g>
<defs>
<clipPath id="clip0_4995_32216">
<rect width="451.614" height="387.857" fill="white" transform="translate(0.705627 112.396) rotate(-30)"/>
</clipPath>
</defs>
</svg>
